<?xml version="1.0" encoding="UTF-8"?>
<svg xmlns="http://www.w3.org/2000/svg" xmlns:xlink="http://www.w3.org/1999/xlink" width="9px" height="9px" viewBox="0 0 9 9" version="1.1">
<g id="surface1">
<path style=" stroke:none;fill-rule:nonzero;fill:rgb(0%,0%,0%);fill-opacity:1;" d="M 2.910156 0.554688 C 2.488281 0.664062 2.171875 0.84375 1.898438 1.132812 C 1.386719 1.667969 1.175781 2.34375 1.222656 3.285156 C 1.246094 3.710938 1.363281 4.484375 1.414062 4.53125 C 1.421875 4.539062 1.859375 4.617188 2.378906 4.710938 C 2.898438 4.800781 3.484375 4.898438 3.679688 4.941406 C 3.875 4.976562 4.042969 4.992188 4.054688 4.980469 C 4.070312 4.96875 4.007812 4.773438 3.917969 4.546875 C 3.597656 3.734375 3.460938 3.148438 3.457031 2.59375 C 3.453125 1.820312 3.707031 1.457031 4.375 1.285156 C 4.621094 1.214844 5.265625 1.210938 5.800781 1.273438 C 6.457031 1.347656 6.496094 1.246094 5.914062 1 C 4.789062 0.515625 3.699219 0.351562 2.910156 0.554688 Z M 2.910156 0.554688 "/>
<path style=" stroke:none;fill-rule:nonzero;fill:rgb(0%,0%,0%);fill-opacity:1;" d="M 4.425781 1.949219 C 4.214844 2.003906 3.933594 2.257812 3.878906 2.449219 C 3.816406 2.652344 3.820312 2.796875 3.890625 3.039062 C 4.160156 3.933594 5.515625 4.378906 6.078125 3.75 C 6.402344 3.386719 6.328125 2.859375 5.886719 2.425781 C 5.46875 2.015625 4.894531 1.824219 4.425781 1.949219 Z M 4.425781 1.949219 "/>
<path style=" stroke:none;fill-rule:nonzero;fill:rgb(0%,0%,0%);fill-opacity:1;" d="M 6.492188 2.191406 C 6.492188 2.222656 6.546875 2.40625 6.621094 2.597656 C 6.726562 2.886719 6.75 3.015625 6.75 3.308594 C 6.753906 3.625 6.742188 3.691406 6.640625 3.894531 C 6.34375 4.484375 5.644531 4.886719 4.632812 5.054688 C 4.308594 5.105469 4.078125 5.113281 3.550781 5.097656 C 2.878906 5.078125 2.527344 5.023438 1.78125 4.828125 C 1.597656 4.78125 1.433594 4.753906 1.421875 4.769531 C 1.398438 4.792969 2.679688 8.15625 2.734375 8.203125 C 2.761719 8.230469 3.453125 8.101562 3.898438 7.984375 C 4.640625 7.796875 5.5 7.425781 6.070312 7.054688 C 6.476562 6.792969 7.089844 6.179688 7.292969 5.835938 C 7.589844 5.347656 7.710938 4.988281 7.734375 4.550781 C 7.769531 3.808594 7.519531 3.160156 6.933594 2.503906 C 6.632812 2.164062 6.492188 2.0625 6.492188 2.191406 Z M 6.492188 2.191406 "/>
</g>
</svg>
